<?xml version="1.0" standalone="no"?>
<!DOCTYPE svg PUBLIC "-//W3C//DTD SVG 20010904//EN"
 "http://www.w3.org/TR/2001/REC-SVG-20010904/DTD/svg10.dtd">
<svg version="1.0" xmlns="http://www.w3.org/2000/svg"
 width="512.000000pt" height="512.000000pt" viewBox="0 0 512.000000 512.000000"
 preserveAspectRatio="xMidYMid meet">

<g transform="translate(0.000000,512.000000) scale(0.100000,-0.100000)"
fill="#000000" stroke="none">
<path d="M2487 5106 c-122 -45 -189 -158 -167 -278 31 -159 197 -243 345 -174
184 85 185 344 1 438 -50 26 -131 32 -179 14z"/>
<path d="M1321 4793 c-98 -35 -173 -156 -157 -255 31 -196 264 -279 405 -145
130 124 81 342 -90 402 -52 19 -101 18 -158 -2z"/>
<path d="M3631 4797 c-48 -19 -108 -72 -133 -120 -29 -55 -31 -165 -4 -217 48
-91 118 -133 221 -134 84 -1 135 22 188 84 94 110 67 288 -56 364 -37 22 -61
29 -114 32 -40 2 -82 -2 -102 -9z"/>
<path d="M4476 3945 c-107 -38 -177 -178 -147 -292 35 -130 189 -212 318 -169
127 42 200 209 144 331 -23 51 -98 118 -149 133 -52 16 -118 14 -166 -3z"/>
</g>
</svg>
